<svg width="166" height="16" viewBox="0 0 166 16" fill="none" xmlns="http://www.w3.org/2000/svg">
<path d="M1.47473 1.57471H4.26075V10.0915H7.72203V12.4415H1.47473V1.57471Z" fill="#7A8D7A"/>
<path d="M16.5428 1.57446C17.2986 1.57446 17.8151 2.08874 17.8151 2.84673V11.1713C17.8151 11.927 17.3008 12.4435 16.5428 12.4435H10.9551C10.1994 12.4435 9.68286 11.9292 9.68286 11.1713V2.84673C9.68286 2.09097 10.1971 1.57446 10.9551 1.57446H16.5428ZM15.0134 4.10111C15.0134 4.00497 14.9329 3.92447 14.8368 3.92447H12.6321C12.5673 3.92447 12.4868 4.00497 12.4868 4.10111V9.94594C12.4868 10.0264 12.5673 10.0913 12.6321 10.0913H14.8368C14.9329 10.0913 15.0134 10.0264 15.0134 9.94594V4.10111Z" fill="#7A8D7A"/>
<path d="M20.5833 10.0913H24.6572C24.769 10.0913 24.8338 10.0265 24.8338 9.94597V8.36738C24.8338 8.28688 24.769 8.22204 24.6572 8.22204H21.8555C21.0998 8.22204 20.5833 7.70777 20.5833 6.94977V2.84453C20.5833 2.08878 21.0975 1.57227 21.8555 1.57227H27.4745V3.90662H23.5459C23.4498 3.90662 23.3849 3.98711 23.3849 4.08326V5.6775C23.3849 5.74235 23.4498 5.82284 23.5459 5.82284H26.3476C27.1033 5.82284 27.6199 6.33711 27.6199 7.09511V11.169C27.6199 11.9248 27.1056 12.4413 26.3476 12.4413H20.5833V10.0913Z" fill="#7A8D7A"/>
<path d="M42.3013 12.4413H39.4996V9.73579H37.0356V12.4413H34.2339V2.84453C34.2339 2.08878 34.7482 1.57227 35.5061 1.57227H41.029C41.7848 1.57227 42.3013 2.08654 42.3013 2.84453V12.4413ZM39.4996 7.38579V4.1168C39.4996 3.92451 39.3386 3.79482 39.1128 3.79482H37.3732C37.1809 3.79482 37.0356 3.94016 37.0356 4.1168V7.38579H39.4996Z" fill="#7A8D7A"/>
<path d="M47.8711 6.46901V12.4413H45.2953V1.57446H47.8711L51.1245 7.56463V1.57446H53.7003V12.4413H51.044L47.8711 6.46901Z" fill="#7A8D7A"/>
<path d="M60.6048 5.77585H65.5307V8.07891H64.6296V11.2026C64.6296 11.9114 64.0818 12.4413 63.3909 12.4413H57.9485C57.2554 12.4413 56.6919 11.9091 56.6919 11.2026V2.79754C56.6919 2.13793 57.2554 1.57446 57.9485 1.57446H64.6788V3.90882H59.6389C59.5584 3.90882 59.4779 3.98931 59.4779 4.08546V9.91464C59.4779 10.0108 59.5584 10.0756 59.6389 10.0756H61.8928C62.0046 10.0756 62.0694 10.0108 62.0694 9.91464V8.07891H60.6048V5.77585Z" fill="#7A8D7A"/>
<path d="M68.1222 1.57446H75.2214V3.90882H70.906V5.80939H74.6423V8.1281H70.906V10.0935H75.2214V12.4435H68.1222V1.5767V1.57446Z" fill="#7A8D7A"/>
<path d="M77.927 1.57446H80.713V10.0913H84.1743V12.4413H77.927V1.57446Z" fill="#7A8D7A"/>
<path d="M86.5557 1.57446H93.6549V3.90882H89.3394V5.80939H93.0758V8.1281H89.3394V10.0935H93.6549V12.4435H86.5557V1.5767V1.57446Z" fill="#7A8D7A"/>
<path d="M96.1345 10.0913H100.208C100.32 10.0913 100.385 10.0265 100.385 9.94597V8.36738C100.385 8.28688 100.32 8.22204 100.208 8.22204H97.4068C96.651 8.22204 96.1345 7.70777 96.1345 6.94977V2.84453C96.1345 2.08878 96.6488 1.57227 97.4068 1.57227H103.026V3.90662H99.0972C99.001 3.90662 98.9362 3.98711 98.9362 4.08326V5.6775C98.9362 5.74235 99.001 5.82284 99.0972 5.82284H101.899C102.655 5.82284 103.171 6.33711 103.171 7.09511V11.169C103.171 11.9248 102.657 12.4413 101.899 12.4413H96.1345V10.0913Z" fill="#7A8D7A"/>
<path d="M107.196 9.49658H109.966L107.97 14.3598H105.716L107.196 9.49658Z" fill="#7A8D7A"/>
<path d="M124.583 8.38523V11.2026C124.583 11.9114 124.004 12.4413 123.311 12.4413H117.853C117.159 12.4413 116.614 11.9091 116.614 11.2026V2.79754C116.614 2.13793 117.162 1.57446 117.853 1.57446H123.311C124.004 1.57446 124.583 2.13793 124.583 2.79754V5.59921H121.781V4.08546C121.781 3.98931 121.701 3.90882 121.636 3.90882H119.592C119.496 3.90882 119.415 3.98931 119.415 4.08546V9.93029C119.415 10.0264 119.496 10.0913 119.592 10.0913H121.636C121.701 10.0913 121.781 10.0264 121.781 9.93029V8.38523H124.583Z" fill="#7A8D7A"/>
<path d="M135.239 12.4413H132.438V9.73579H129.974V12.4413H127.172V2.84453C127.172 2.08878 127.686 1.57227 128.444 1.57227H133.967C134.723 1.57227 135.239 2.08654 135.239 2.84453V12.4413ZM132.438 7.38579V4.1168C132.438 3.92451 132.277 3.79482 132.051 3.79482H130.311C130.119 3.79482 129.974 3.94016 129.974 4.1168V7.38579H132.438Z" fill="#7A8D7A"/>
<path d="M138.233 1.57446H141.019V10.0913H144.481V12.4413H138.233V1.57446Z" fill="#7A8D7A"/>
<path d="M149.648 12.4413H146.862V1.57446H149.648V12.4413Z" fill="#7A8D7A"/>
<path d="M152.738 1.57446H159.629V3.90882H155.524V6.37286H159.066V8.69156H155.524V12.4435H152.738V1.5767V1.57446Z" fill="#7A8D7A"/>
<path d="M164.184 12.4414H161.174V9.49438H164.184V12.4414Z" fill="#7A8D7A"/>
<path d="M1.47483 13.3363C0.980683 13.3363 0.580444 12.936 0.580444 12.4419V1.57505C0.580444 1.0809 0.980683 0.680664 1.47483 0.680664H4.26085C4.755 0.680664 5.15524 1.0809 5.15524 1.57505V9.19748H7.72213C8.21628 9.19748 8.61652 9.59772 8.61652 10.0919V12.4419C8.61652 12.936 8.21628 13.3363 7.72213 13.3363H1.47483Z" fill="black"/>
<path d="M10.9554 13.3358C9.70097 13.3358 8.7887 12.4258 8.7887 11.1691V2.84463C8.7887 1.59025 9.69874 0.677979 10.9554 0.677979H16.543C17.7974 0.677979 18.7097 1.58802 18.7097 2.84463V11.1691C18.7097 12.4235 17.7997 13.3358 16.543 13.3358H10.9554ZM14.1192 9.19703V4.81899H13.3814V9.19703H14.1192Z" fill="black"/>
<path d="M20.5835 13.3358C20.0893 13.3358 19.6891 12.9355 19.6891 12.4414V10.0914C19.6891 9.59723 20.0893 9.19699 20.5835 9.19699H23.9397V9.11873H21.8557C20.6014 9.11873 19.6891 8.20869 19.6891 6.95208V2.84683C19.6891 1.59245 20.5991 0.680176 21.8557 0.680176H27.4747C27.9689 0.680176 28.3691 1.08041 28.3691 1.57456V3.90892C28.3691 4.40307 27.9689 4.80331 27.4747 4.80331H24.2795V4.93076H26.3478C27.6022 4.93076 28.5145 5.8408 28.5145 7.09741V11.1714C28.5145 12.4257 27.6044 13.338 26.3478 13.338H20.5835V13.3358Z" fill="black"/>
<path d="M39.4997 13.3358C39.0055 13.3358 38.6053 12.9356 38.6053 12.4414V10.6303H37.93V12.4414C37.93 12.9356 37.5298 13.3358 37.0357 13.3358H34.234C33.7398 13.3358 33.3396 12.9356 33.3396 12.4414V2.84463C33.3396 1.59025 34.2496 0.677979 35.5062 0.677979H41.0291C42.2835 0.677979 43.1958 1.58802 43.1958 2.84463V12.4414C43.1958 12.9356 42.7955 13.3358 42.3014 13.3358H39.4997ZM38.6053 6.4915V4.68931H37.93V6.4915H38.6053Z" fill="black"/>
<path d="M51.042 13.3358C50.711 13.3358 50.4069 13.1524 50.2527 12.8617L48.7657 10.0601V12.4414C48.7657 12.9355 48.3655 13.3358 47.8713 13.3358H45.2955C44.8014 13.3358 44.4011 12.9355 44.4011 12.4414V1.57456C44.4011 1.08041 44.8014 0.680176 45.2955 0.680176H47.8713C48.2 0.680176 48.5019 0.859059 48.6584 1.1475L50.2303 4.04308V1.57456C50.2303 1.08041 50.6305 0.680176 51.1247 0.680176H53.7005C54.1947 0.680176 54.5949 1.08041 54.5949 1.57456V12.4414C54.5949 12.9355 54.1947 13.3358 53.7005 13.3358H51.0442H51.042Z" fill="black"/>
<path d="M57.9489 13.3358C56.7437 13.3358 55.7979 12.3989 55.7979 11.2027V2.79764C55.7979 1.63046 56.7616 0.680176 57.9489 0.680176H64.6791C65.1733 0.680176 65.5735 1.08041 65.5735 1.57456V3.90892C65.5735 4.40307 65.1733 4.80331 64.6791 4.80331H60.3727V4.91287C60.4464 4.89275 60.5247 4.88157 60.6052 4.88157H65.531C66.0252 4.88157 66.4254 5.2818 66.4254 5.77595V8.07901C66.4254 8.57316 66.0252 8.9734 65.531 8.9734H65.5243V11.2027C65.5243 12.3989 64.5875 13.3358 63.3912 13.3358H57.9489ZM61.1754 9.18134V8.9734H60.6052C60.5247 8.9734 60.4464 8.96221 60.3727 8.94209V9.18134H61.1754Z" fill="black"/>
<path d="M68.1224 13.3358C67.6283 13.3358 67.228 12.9355 67.228 12.4414V1.57456C67.228 1.08041 67.6283 0.680176 68.1224 0.680176H75.2216C75.7158 0.680176 76.116 1.08041 76.116 1.57456V3.90892C76.116 4.40307 75.7158 4.80331 75.2216 4.80331H71.8006V4.9151H74.6425C75.1367 4.9151 75.5369 5.31534 75.5369 5.80949V8.1282C75.5369 8.62235 75.1367 9.02259 74.6425 9.02259H71.8006V9.19922H75.2216C75.7158 9.19922 76.116 9.59946 76.116 10.0936V12.4436C76.116 12.9378 75.7158 13.338 75.2216 13.338H68.1224V13.3358Z" fill="black"/>
<path d="M77.9271 13.3358C77.433 13.3358 77.0327 12.9355 77.0327 12.4414V1.57456C77.0327 1.08041 77.433 0.680176 77.9271 0.680176H80.7131C81.2073 0.680176 81.6075 1.08041 81.6075 1.57456V9.19699H84.1744C84.6686 9.19699 85.0688 9.59723 85.0688 10.0914V12.4414C85.0688 12.9355 84.6686 13.3358 84.1744 13.3358H77.9271Z" fill="black"/>
<path d="M86.5558 13.3358C86.0616 13.3358 85.6614 12.9355 85.6614 12.4414V1.57456C85.6614 1.08041 86.0616 0.680176 86.5558 0.680176H93.655C94.1491 0.680176 94.5494 1.08041 94.5494 1.57456V3.90892C94.5494 4.40307 94.1491 4.80331 93.655 4.80331H90.2339V4.9151H93.0759C93.57 4.9151 93.9703 5.31534 93.9703 5.80949V8.1282C93.9703 8.62235 93.57 9.02259 93.0759 9.02259H90.2339V9.19922H93.655C94.1491 9.19922 94.5494 9.59946 94.5494 10.0936V12.4436C94.5494 12.9378 94.1491 13.338 93.655 13.338H86.5558V13.3358Z" fill="black"/>
<path d="M96.1347 13.3358C95.6406 13.3358 95.2404 12.9355 95.2404 12.4414V10.0914C95.2404 9.59723 95.6406 9.19699 96.1347 9.19699H99.4909V9.11873H97.407C96.1526 9.11873 95.2404 8.20869 95.2404 6.95208V2.84683C95.2404 1.59245 96.1504 0.680176 97.407 0.680176H103.026C103.52 0.680176 103.92 1.08041 103.92 1.57456V3.90892C103.92 4.40307 103.52 4.80331 103.026 4.80331H99.8308V4.93076H101.899C103.153 4.93076 104.066 5.8408 104.066 7.09741V11.1714C104.066 12.4257 103.156 13.338 101.899 13.338H96.1347V13.3358Z" fill="black"/>
<path d="M105.713 15.2521C105.43 15.2521 105.163 15.118 104.996 14.8899C104.828 14.6618 104.777 14.3689 104.859 14.0961L106.34 9.23287C106.454 8.85723 106.802 8.6001 107.196 8.6001H109.966C110.264 8.6001 110.543 8.74767 110.709 8.99586C110.874 9.24405 110.905 9.55709 110.794 9.83435L108.797 14.6976C108.658 15.033 108.332 15.2521 107.97 15.2521H105.716H105.713Z" fill="black"/>
<path d="M117.853 13.3358C116.656 13.3358 115.72 12.3989 115.72 11.2027V2.79764C115.72 1.63046 116.677 0.680176 117.853 0.680176H123.311C124.485 0.680176 125.477 1.65059 125.477 2.79764V5.59931C125.477 6.09346 125.077 6.4937 124.583 6.4937H121.781C121.287 6.4937 120.887 6.09346 120.887 5.59931V4.80331H120.31V9.19699H120.887V8.38533C120.887 7.89118 121.287 7.49095 121.781 7.49095H124.583C125.077 7.49095 125.477 7.89118 125.477 8.38533V11.2027C125.477 12.3788 124.505 13.3358 123.311 13.3358H117.853Z" fill="black"/>
<path d="M132.438 13.3358C131.944 13.3358 131.544 12.9356 131.544 12.4414V10.6303H130.868V12.4414C130.868 12.9356 130.468 13.3358 129.974 13.3358H127.172C126.678 13.3358 126.278 12.9356 126.278 12.4414V2.84463C126.278 1.59025 127.188 0.677979 128.444 0.677979H133.967C135.222 0.677979 136.134 1.58802 136.134 2.84463V12.4414C136.134 12.9356 135.734 13.3358 135.24 13.3358H132.438ZM131.544 6.4915V4.68931H130.868V6.4915H131.544Z" fill="black"/>
<path d="M138.233 13.3358C137.739 13.3358 137.339 12.9355 137.339 12.4414V1.57456C137.339 1.08041 137.739 0.680176 138.233 0.680176H141.02C141.514 0.680176 141.914 1.08041 141.914 1.57456V9.19699H144.481C144.975 9.19699 145.375 9.59723 145.375 10.0914V12.4414C145.375 12.9355 144.975 13.3358 144.481 13.3358H138.233Z" fill="black"/>
<path d="M149.648 0.680176H146.862C146.368 0.680176 145.968 1.08061 145.968 1.57456V12.4414C145.968 12.9353 146.368 13.3358 146.862 13.3358H149.648C150.142 13.3358 150.543 12.9353 150.543 12.4414V1.57456C150.543 1.08061 150.142 0.680176 149.648 0.680176Z" fill="black"/>
<path d="M152.738 13.3358C152.244 13.3358 151.844 12.9355 151.844 12.4414V1.57456C151.844 1.08041 152.244 0.680176 152.738 0.680176H159.63C160.124 0.680176 160.524 1.08041 160.524 1.57456V3.90892C160.524 4.40307 160.124 4.80331 159.63 4.80331H156.419V5.47857H159.066C159.56 5.47857 159.96 5.87881 159.96 6.37296V8.69166C159.96 9.18581 159.56 9.58605 159.066 9.58605H156.419V12.4436C156.419 12.9378 156.018 13.338 155.524 13.338H152.738V13.3358Z" fill="black"/>
<path d="M164.184 8.60229H161.175C160.681 8.60229 160.28 9.00273 160.28 9.49668V12.4437C160.28 12.9376 160.681 13.3381 161.175 13.3381H164.184C164.678 13.3381 165.079 12.9376 165.079 12.4437V9.49668C165.079 9.00273 164.678 8.60229 164.184 8.60229Z" fill="black"/>
<path d="M1.47473 1.57471H4.26075V10.0915H7.72203V12.4415H1.47473V1.57471Z" fill="#F15A24"/>
<path d="M16.5428 1.57446C17.2986 1.57446 17.8151 2.08874 17.8151 2.84673V11.1713C17.8151 11.927 17.3008 12.4435 16.5428 12.4435H10.9551C10.1994 12.4435 9.68286 11.9292 9.68286 11.1713V2.84673C9.68286 2.09097 10.1971 1.57446 10.9551 1.57446H16.5428ZM15.0134 4.10111C15.0134 4.00497 14.9329 3.92447 14.8368 3.92447H12.6321C12.5673 3.92447 12.4868 4.00497 12.4868 4.10111V9.94594C12.4868 10.0264 12.5673 10.0913 12.6321 10.0913H14.8368C14.9329 10.0913 15.0134 10.0264 15.0134 9.94594V4.10111Z" fill="#F15A24"/>
<path d="M20.5833 10.0913H24.6572C24.769 10.0913 24.8338 10.0265 24.8338 9.94597V8.36738C24.8338 8.28688 24.769 8.22204 24.6572 8.22204H21.8555C21.0998 8.22204 20.5833 7.70777 20.5833 6.94977V2.84453C20.5833 2.08878 21.0975 1.57227 21.8555 1.57227H27.4745V3.90662H23.5459C23.4498 3.90662 23.3849 3.98711 23.3849 4.08326V5.6775C23.3849 5.74235 23.4498 5.82284 23.5459 5.82284H26.3476C27.1033 5.82284 27.6199 6.33711 27.6199 7.09511V11.169C27.6199 11.9248 27.1056 12.4413 26.3476 12.4413H20.5833V10.0913Z" fill="#F15A24"/>
<path d="M42.3013 12.4413H39.4996V9.73579H37.0356V12.4413H34.2339V2.84453C34.2339 2.08878 34.7482 1.57227 35.5061 1.57227H41.029C41.7848 1.57227 42.3013 2.08654 42.3013 2.84453V12.4413ZM39.4996 7.38579V4.1168C39.4996 3.92451 39.3386 3.79482 39.1128 3.79482H37.3732C37.1809 3.79482 37.0356 3.94016 37.0356 4.1168V7.38579H39.4996Z" fill="#F15A24"/>
<path d="M47.8711 6.46901V12.4413H45.2953V1.57446H47.8711L51.1245 7.56463V1.57446H53.7003V12.4413H51.044L47.8711 6.46901Z" fill="#F15A24"/>
<path d="M60.6048 5.77585H65.5307V8.07891H64.6296V11.2026C64.6296 11.9114 64.0818 12.4413 63.3909 12.4413H57.9485C57.2554 12.4413 56.6919 11.9091 56.6919 11.2026V2.79754C56.6919 2.13793 57.2554 1.57446 57.9485 1.57446H64.6788V3.90882H59.6389C59.5584 3.90882 59.4779 3.98931 59.4779 4.08546V9.91464C59.4779 10.0108 59.5584 10.0756 59.6389 10.0756H61.8928C62.0046 10.0756 62.0694 10.0108 62.0694 9.91464V8.07891H60.6048V5.77585Z" fill="#F15A24"/>
<path d="M68.1222 1.57446H75.2214V3.90882H70.906V5.80939H74.6423V8.1281H70.906V10.0935H75.2214V12.4435H68.1222V1.5767V1.57446Z" fill="#F15A24"/>
<path d="M77.927 1.57446H80.713V10.0913H84.1743V12.4413H77.927V1.57446Z" fill="#F15A24"/>
<path d="M86.5557 1.57446H93.6549V3.90882H89.3394V5.80939H93.0758V8.1281H89.3394V10.0935H93.6549V12.4435H86.5557V1.5767V1.57446Z" fill="#F15A24"/>
<path d="M96.1345 10.0913H100.208C100.32 10.0913 100.385 10.0265 100.385 9.94597V8.36738C100.385 8.28688 100.32 8.22204 100.208 8.22204H97.4068C96.651 8.22204 96.1345 7.70777 96.1345 6.94977V2.84453C96.1345 2.08878 96.6488 1.57227 97.4068 1.57227H103.026V3.90662H99.0972C99.001 3.90662 98.9362 3.98711 98.9362 4.08326V5.6775C98.9362 5.74235 99.001 5.82284 99.0972 5.82284H101.899C102.655 5.82284 103.171 6.33711 103.171 7.09511V11.169C103.171 11.9248 102.657 12.4413 101.899 12.4413H96.1345V10.0913Z" fill="#F15A24"/>
<path d="M107.196 9.49658H109.966L107.97 14.3598H105.716L107.196 9.49658Z" fill="#F15A24"/>
<path d="M124.583 8.38523V11.2026C124.583 11.9114 124.004 12.4413 123.311 12.4413H117.853C117.159 12.4413 116.614 11.9091 116.614 11.2026V2.79754C116.614 2.13793 117.162 1.57446 117.853 1.57446H123.311C124.004 1.57446 124.583 2.13793 124.583 2.79754V5.59921H121.781V4.08546C121.781 3.98931 121.701 3.90882 121.636 3.90882H119.592C119.496 3.90882 119.415 3.98931 119.415 4.08546V9.93029C119.415 10.0264 119.496 10.0913 119.592 10.0913H121.636C121.701 10.0913 121.781 10.0264 121.781 9.93029V8.38523H124.583Z" fill="#F15A24"/>
<path d="M135.239 12.4413H132.438V9.73579H129.974V12.4413H127.172V2.84453C127.172 2.08878 127.686 1.57227 128.444 1.57227H133.967C134.723 1.57227 135.239 2.08654 135.239 2.84453V12.4413ZM132.438 7.38579V4.1168C132.438 3.92451 132.277 3.79482 132.051 3.79482H130.311C130.119 3.79482 129.974 3.94016 129.974 4.1168V7.38579H132.438Z" fill="#F15A24"/>
<path d="M138.233 1.57446H141.019V10.0913H144.481V12.4413H138.233V1.57446Z" fill="#F15A24"/>
<path d="M149.648 12.4413H146.862V1.57446H149.648V12.4413Z" fill="#F15A24"/>
<path d="M152.738 1.57446H159.629V3.90882H155.524V6.37286H159.066V8.69156H155.524V12.4435H152.738V1.5767V1.57446Z" fill="#F15A24"/>
<path d="M164.184 12.4414H161.174V9.49438H164.184V12.4414Z" fill="#F15A24"/>
</svg>
