<svg width="705" height="379" viewBox="0 0 705 379" fill="none" xmlns="http://www.w3.org/2000/svg">
<g clip-path="url(#clip0_45_25)">
<path d="M685.255 189.093C685.255 283.092 536.063 359.293 352.024 359.293C167.986 359.293 18.7935 283.092 18.7935 189.093C18.7935 95.0933 167.986 18.8918 352.024 18.8918C536.063 18.8918 685.255 95.0933 685.255 189.093Z" fill="black"/>
<path d="M352.028 18.8312C260 18.8312 176.682 37.8826 116.368 68.6885C56.0541 99.4944 18.7352 142.063 18.7352 189.094C18.7352 236.126 56.0541 278.687 116.368 309.493C176.682 340.299 260 359.35 352.028 359.35C444.055 359.35 527.366 340.299 587.68 309.493C647.994 278.687 685.312 236.126 685.312 189.094C685.312 142.063 647.994 99.4944 587.68 68.6885C527.366 37.8826 444.055 18.8311 352.028 18.8312ZM352.028 18.9491C444.038 18.9491 527.336 38.0044 587.628 68.799C647.92 99.5936 685.194 142.127 685.194 189.094C685.194 236.062 647.92 278.595 587.628 309.39C527.336 340.184 444.038 359.232 352.028 359.232C260.017 359.232 176.712 340.184 116.42 309.39C56.1279 278.595 18.8533 236.062 18.8533 189.094C18.8533 142.127 56.1279 99.5936 116.42 68.799C176.712 38.0044 260.017 18.9491 352.028 18.9491Z" fill="#FF5555"/>
<path d="M51.1613 248.328L50.9634 144.797C50.9634 144.797 73.9822 137.304 85.9282 135.958C87.0998 135.826 88.3002 135.853 89.4643 136.04C90.9785 136.283 92.504 136.675 93.8654 137.381C96.0722 138.525 98.0044 140.191 99.7523 141.959C101.14 143.363 102.323 144.98 103.336 146.675C104.456 148.549 105.758 150.472 106.053 152.636C107.617 164.127 109.363 176.539 108.021 188.01C107.84 189.553 106.654 191.078 105.64 192.397C104.613 193.733 103.304 194.845 101.967 195.87C100.509 196.988 97.273 198.755 97.273 198.755L112.854 247.574L89.7678 247.83L73.8706 202.391L73.8997 247.672L51.1615 247.951L51.1613 248.328Z" fill="white"/>
<path d="M352.028 0C255.067 0 167.267 20.9886 103.553 55.0541C39.8389 89.1197 4.0063e-06 136.446 0 189.094C3.77953e-08 241.743 39.8389 289.062 103.553 323.127C167.267 357.193 255.067 378.182 352.028 378.182C448.988 378.182 536.788 357.193 600.502 323.127C664.216 289.062 704.048 241.743 704.048 189.094C704.048 136.446 664.216 89.1197 600.502 55.0541C536.788 20.9886 448.988 0 352.028 0ZM352.028 3.77215C448.443 3.77215 535.712 24.6939 598.723 58.3834C661.734 92.0728 700.276 138.352 700.276 189.094C700.276 239.837 661.734 286.116 598.723 319.806C535.712 353.495 448.443 374.409 352.028 374.409C255.612 374.409 168.343 353.495 105.332 319.806C42.3214 286.116 3.77215 239.837 3.77215 189.094C3.77215 138.352 42.3214 92.0728 105.332 58.3834C168.343 24.6939 255.612 3.77215 352.028 3.77215Z" fill="black"/>
<path d="M123.071 247.298L143.167 116.167L176.558 107.652L197.111 247.097L174.498 247.366L169.566 218.313L150.048 218.384L145.461 247.377L123.071 247.298Z" fill="white"/>
<path d="M220.663 96.585L196.229 102.349L219.951 182.624L219.325 247.18L244.181 247.052L244.568 177.387L270.434 86.8098L245.819 92.223L233.198 141.386L220.663 96.585Z" fill="white"/>
<path d="M339.543 72.5671L278.529 85.653L276.958 111.108L296.187 106.466L295.984 247.468L321.923 247.411L321.911 101.8L339.321 98.8304L339.543 72.5671Z" fill="white"/>
<path d="M353.805 72.3899L353.625 247.366L380.62 247.415L380.746 181.921L397.037 181.722L396.678 247.596L422.044 247.286L422.883 87.3731L397.684 82.3277L397.89 156.341L381.594 156.075L381.811 78.5647L353.805 72.3899Z" fill="white"/>
<path d="M494.505 100.929L444.58 91.5305L443.684 247.165L493.728 247.252L493.936 220.901L468.741 221.112L468.71 180.99L492.61 182.101L492.387 155.973L468.902 155.565L468.883 121.034L494.576 125.833L494.505 100.929Z" fill="white"/>
<path d="M508.519 152.546C508.574 166.628 508.686 194.789 508.946 209.721C509.206 224.653 509.615 226.355 510.81 228.94C512.006 231.524 513.988 234.991 516.663 238.023C519.338 241.055 522.706 243.652 526.451 245.351C530.196 247.051 534.318 247.854 539.01 247.719C543.702 247.584 548.964 246.511 553.137 245.141C557.31 243.771 560.393 242.104 562.849 239.979C565.306 237.855 567.153 235.248 568.609 232.45C570.064 229.652 571.162 226.614 571.952 211.903C572.742 197.191 573.225 170.805 572.824 155.316C572.423 139.827 571.111 135.14 569.516 131.552C567.921 127.964 566.028 125.426 563.905 123.125C561.782 120.823 559.429 118.757 557.158 117C554.887 115.243 552.697 113.796 549.85 112.55C547.002 111.305 543.498 110.262 540.003 109.916C536.507 109.571 533.02 109.924 529.621 111.129C526.221 112.334 522.91 114.392 520.414 116.44C517.917 118.487 516.235 120.525 514.483 123.185C512.731 125.844 510.909 129.125 509.894 131.775C508.879 134.426 508.671 136.446 508.567 137.455C508.463 138.465 508.463 138.465 508.519 152.546Z" fill="white"/>
<path d="M589.795 127.695L590.335 247.645L614.31 247.819L613.713 199.324L632.221 247.278L650.847 247.369L651.674 143.93L629.735 139.078L629.566 182.372L612.679 133.7L589.795 127.695Z" fill="white"/>
<path d="M166.731 196.879L152.104 197.032L159.1 147.061L166.731 196.879Z" fill="#000013"/>
<path d="M73.0812 181.069L72.827 160.27C72.827 160.27 78.7314 158.076 81.7929 158.221C83.0815 158.282 83.893 159.784 84.6454 160.83C85.168 161.557 85.5312 162.413 85.7332 163.285C86.7546 167.694 87.1273 172.413 86.2515 176.853C86.0379 177.936 85.5595 178.999 84.878 179.867C84.2831 180.625 83.567 181.56 82.6081 181.658C79.4438 181.98 73.0811 181.787 73.0811 181.787L73.0812 181.069Z" fill="black"/>
<path d="M532.129 175.084C532.079 168.326 531.979 154.81 532.443 147.273C532.907 139.735 533.935 138.177 535.43 137.058C536.924 135.94 538.884 135.263 540.792 135.246C542.701 135.231 544.557 135.873 546.034 136.771C547.511 137.669 548.608 138.821 549.106 146.274C549.604 153.726 549.504 167.479 549.489 180.386C549.474 193.293 549.544 205.352 549.251 211.788C548.959 218.224 548.305 219.037 547.445 219.85C546.585 220.663 545.519 221.476 544.316 221.882C543.113 222.289 541.772 222.289 540.294 222.272C538.816 222.255 537.2 222.221 536.014 221.9C534.827 221.578 534.071 220.968 533.418 220.291C532.766 219.614 532.217 218.869 532.028 212.449C531.838 206.029 532.009 193.936 532.094 187.889C532.179 181.842 532.179 181.842 532.129 175.084Z" fill="black"/>
<path d="M540.79 134.742C538.765 134.761 536.713 135.467 535.128 136.654C534.335 137.247 533.604 138.05 533.076 139.599C532.547 141.148 532.172 143.45 531.939 147.239C531.472 154.818 531.572 168.333 531.621 175.091C531.671 181.849 531.677 181.837 531.591 187.884C531.506 193.931 531.335 206.018 531.525 212.466C531.62 215.689 531.799 217.5 532.056 218.637C532.313 219.774 532.711 220.283 533.053 220.637C533.736 221.346 534.591 222.037 535.88 222.387C537.169 222.736 538.805 222.761 540.287 222.778C541.769 222.795 543.169 222.8 544.48 222.357C545.79 221.914 546.898 221.057 547.787 220.217C548.232 219.796 548.714 219.242 549.042 218.061C549.37 216.88 549.604 215.043 549.751 211.809C550.044 205.34 549.979 193.288 549.994 180.384C550.009 167.479 550.111 153.741 549.61 146.243C549.36 142.493 548.963 140.305 548.407 138.883C547.85 137.461 547.068 136.813 546.296 136.344C544.75 135.404 542.814 134.724 540.79 134.742ZM540.797 135.753C542.59 135.738 544.365 136.344 545.773 137.2C546.477 137.628 546.985 138.003 547.471 139.245C547.956 140.486 548.353 142.606 548.6 146.309C549.095 153.716 548.999 167.475 548.984 180.384C548.969 193.293 549.038 205.36 548.748 211.764C548.602 214.966 548.364 216.758 548.076 217.795C547.788 218.833 547.517 219.093 547.102 219.486C546.271 220.271 545.252 221.035 544.156 221.405C543.061 221.775 541.778 221.784 540.303 221.767C538.828 221.75 537.23 221.706 536.147 221.412C535.064 221.119 534.407 220.59 533.785 219.943C533.474 219.62 533.267 219.425 533.039 218.415C532.811 217.406 532.624 215.632 532.53 212.436C532.341 206.044 532.511 193.946 532.596 187.899C532.681 181.851 532.683 181.841 532.634 175.084C532.584 168.326 532.482 154.802 532.944 147.306C533.175 143.557 533.554 141.317 534.029 139.924C534.504 138.53 535.032 137.983 535.734 137.458C537.138 136.408 539.005 135.769 540.797 135.753Z" fill="black"/>
</g>
<defs>
<clipPath id="clip0_45_25">
<rect width="704.048" height="378.182" fill="white"/>
</clipPath>
</defs>
</svg>
