<?xml version="1.0" encoding="utf-8"?>
<!-- Generator: Adobe Illustrator 28.3.0, SVG Export Plug-In . SVG Version: 6.00 Build 0)  -->
<svg version="1.1" id="Layer_1" xmlns="http://www.w3.org/2000/svg" xmlns:xlink="http://www.w3.org/1999/xlink" x="0px" y="0px"
	 viewBox="0 0 50 58" style="enable-background:new 0 0 50 58;" xml:space="preserve">
<style type="text/css">
	.st0{clip-path:url(#SVGID_00000119107507614739378200000006636310888750837947_);}
	.st1{fill:#6DA8B9;}
</style>
<g>
	<defs>
		<rect id="SVGID_1_" width="50" height="58"/>
	</defs>
	<clipPath id="SVGID_00000137096088099786340430000006897130908592915374_">
		<use xlink:href="#SVGID_1_"  style="overflow:visible;"/>
	</clipPath>
	<g style="clip-path:url(#SVGID_00000137096088099786340430000006897130908592915374_);">
		<path class="st1" d="M42.5,11.6c-3.1-2-5.3-5.3-6-9.1c-0.2-0.8-0.2-1.7-0.2-2.5h-9.9l0,40c-0.2,4.5-3.8,8.1-8.3,8.1
			c-1.4,0-2.7-0.3-3.8-1c-2.6-1.4-4.4-4.2-4.4-7.4c0-4.6,3.7-8.4,8.3-8.4c0.9,0,1.7,0.1,2.4,0.4V21.5c-0.8-0.1-1.6-0.2-2.4-0.2
			C8.1,21.3,0,29.5,0,39.6c0,6.2,3.1,11.7,7.7,15c2.9,2.1,6.5,3.3,10.4,3.3c10,0,18.1-8.2,18.1-18.4V19.4c3.9,2.8,8.6,4.5,13.7,4.5
			v-10C47.2,13.9,44.7,13,42.5,11.6z"/>
	</g>
</g>
</svg>
