<svg width="64" height="46" viewBox="0 0 64 46" fill="none" xmlns="http://www.w3.org/2000/svg">
<path fill-rule="evenodd" clip-rule="evenodd" d="M63.348 9.7123C63.348 9.7123 62.7232 5.3008 60.8003 3.3638C58.3637 0.816099 55.6353 0.7996 54.388 0.652C45.4387 -3.33786e-07 31.9976 0 31.9976 0H31.974C31.974 0 18.5388 -3.33786e-07 9.5847 0.652C8.3327 0.8043 5.6079 0.814999 3.1724 3.3638C1.2484 5.3008 0.6366 9.7123 0.6366 9.7123C0.6366 9.7123 0 14.8891 0 20.0766V24.9275C0 30.1043 0.6366 35.2918 0.6366 35.2918C0.6366 35.2918 1.2614 39.7032 3.1724 41.6438C5.6079 44.1915 8.8087 44.1088 10.2379 44.3805C15.3616 44.8695 32.0023 45.0171 32.0023 45.0171C32.0023 45.0171 45.4552 44.9934 54.4045 44.3533C55.6565 44.2056 58.3801 44.1903 60.8168 41.6414C62.7408 39.7044 63.3644 35.2882 63.3644 35.2882C63.3644 35.2882 64.0012 30.1115 64.0012 24.9239V20.0731C63.9882 14.8962 63.3515 9.7088 63.3515 9.7088L63.348 9.7123ZM25.368 30.813V12.8258L42.6572 21.8495L25.368 30.813Z" fill="#58818E"/>
</svg>
