<svg width="56" height="56" viewBox="0 0 56 56" fill="none" xmlns="http://www.w3.org/2000/svg">
<path d="M18.6663 28.0172C18.6572 22.8633 22.8285 18.6765 27.9814 18.6676C33.1353 18.6575 37.3228 22.827 37.3329 27.9818C37.3428 33.1367 33.1715 37.3225 28.0167 37.3325C22.8639 37.3424 18.6762 33.172 18.6663 28.0172ZM13.6232 28.0272C13.6386 35.9681 20.0879 42.3911 28.0268 42.3756C35.9666 42.3603 42.3932 35.9127 42.3778 27.9719C42.3624 20.0338 35.9122 13.607 27.9715 13.6225C20.0325 13.638 13.6078 20.0881 13.6232 28.0272ZM39.5565 13.0328C39.5601 14.8871 41.0677 16.3886 42.9222 16.385C44.7773 16.3813 46.2788 14.8744 46.2761 13.0201C46.2724 11.1657 44.7647 9.66337 42.9095 9.66709C41.0543 9.6707 39.5529 11.1784 39.5565 13.0328ZM16.7303 50.8109C14.0005 50.6922 12.5182 50.2385 11.5303 49.8584C10.2221 49.3522 9.28854 48.7453 8.30602 47.7701C7.32536 46.7911 6.71658 45.8603 6.2058 44.5548C5.82211 43.5668 5.36033 42.0863 5.23236 39.3565C5.09356 36.4053 5.06184 35.5199 5.04828 28.0435C5.03374 20.5691 5.06097 19.6836 5.18981 16.7297C5.30674 14.0017 5.76316 12.5174 6.14236 11.5304C6.64855 10.2204 7.25372 9.28865 8.23077 8.30625C9.20957 7.32373 10.1404 6.71681 11.4467 6.20603C12.4338 5.82037 13.9143 5.3622 16.6433 5.23259C19.5962 5.09281 20.4807 5.06295 27.9552 5.0484C35.4313 5.03385 36.3167 5.06021 39.2707 5.18993C41.9985 5.30871 43.4827 5.76054 44.469 6.14248C45.778 6.64867 46.7115 7.25209 47.6931 8.23089C48.6747 9.20979 49.2834 10.1387 49.7942 11.4479C50.1797 12.4322 50.6379 13.9146 50.7668 16.6426C50.9073 19.5955 50.9392 20.481 50.9527 27.9555C50.9672 35.4318 50.9399 36.3173 50.8103 39.2695C50.6914 41.9991 50.2387 43.4826 49.8578 44.4713C49.3515 45.7787 48.7464 46.7122 47.7684 47.6947C46.7904 48.6735 45.8597 49.2841 44.5524 49.7948C43.567 50.1795 42.0848 50.6386 39.3577 50.7683C36.4048 50.9071 35.5202 50.9389 28.0431 50.9525C20.5686 50.967 19.6842 50.9389 16.7303 50.8109ZM16.4037 0.193895C13.4245 0.334551 11.3896 0.811645 9.61142 1.50847C7.77074 2.22608 6.21039 3.18771 4.65825 4.74631C3.10414 6.30578 2.14973 7.86885 1.43759 9.71139C0.748197 11.4941 0.280946 13.5299 0.149368 16.511C0.0187739 19.4976 -0.0111949 20.4502 0.003352 28.0535C0.0178989 35.6559 0.0513677 36.6103 0.193774 39.5978C0.336181 42.5762 0.811635 44.6101 1.50835 46.3891C2.22684 48.2299 3.18759 49.7895 4.74706 51.3426C6.30566 52.8957 7.86972 53.8493 9.71313 54.5624C11.494 55.2508 13.5305 55.7199 16.5108 55.8505C19.4973 55.9821 20.4507 56.0111 28.0522 55.9966C35.6573 55.9821 36.6108 55.9485 39.5973 55.807C42.5765 55.6646 44.6095 55.1875 46.3895 54.4924C48.2302 53.7722 49.7905 52.8132 51.3429 51.2537C52.895 49.695 53.8494 48.131 54.5616 46.2876C55.2511 44.5068 55.7201 42.47 55.8497 39.4917C55.9804 36.5033 56.0113 35.5489 55.9967 27.9464C55.9821 20.3431 55.9478 19.3905 55.8062 16.4049C55.6647 13.4238 55.1875 11.3907 54.4917 9.61076C53.7723 7.77009 52.8125 6.21138 51.2539 4.65738C49.6953 3.10513 48.1313 2.14887 46.2879 1.43858C44.5061 0.749083 42.4703 0.279207 39.4902 0.150363C36.5036 0.0179102 35.5502 -0.0110742 27.946 0.00336329C20.3436 0.0179102 19.3902 0.050504 16.4037 0.193895Z" fill="white"/>
</svg>
